<?xml version="1.0" encoding="utf-8"?>
<!-- Svg Vector Icons : http://www.onlinewebfonts.com/icon -->
<!DOCTYPE svg PUBLIC "-//W3C//DTD SVG 1.1//EN" "http://www.w3.org/Graphics/SVG/1.1/DTD/svg11.dtd">
<svg version="1.1" xmlns="http://www.w3.org/2000/svg" xmlns:xlink="http://www.w3.org/1999/xlink" x="0px" y="0px" viewBox="0 0 1000 1000" enable-background="new 0 0 1000 1000" xml:space="preserve">
<g><path fill="#ffffff" d="M10,500.1c0,53.4,43.5,97,97.1,97h551.6L509.5,746c-40.4,40.4-42.4,103.9-4.4,141.8c37.8,37.8,101.2,35.9,141.8-4.6l311.3-311.4c40.6-40.2,42.6-103.9,4.6-141.8c-1.1-0.8-2.1-1.6-3.1-2.5c-1.4-1.4-2.3-2.9-3.5-4.3L648.9,115.9c-39.9-39.8-103-41.3-140.8-3.3c-37.9,37.8-36.4,100.9,3.4,140.8l149.7,149.6h-554C53.5,402.9,10,446.3,10,500.1"/></g>
</svg>